<svg id="visual" viewBox="0 0 900 600" width="900" height="600" xmlns="http://www.w3.org/2000/svg" xmlns:xlink="http://www.w3.org/1999/xlink" version="1.1"><rect x="0" y="0" width="900" height="600" fill="#001220"></rect><defs><linearGradient id="grad1_0" x1="33.3%" y1="0%" x2="100%" y2="100%"><stop offset="20%" stop-color="#001220" stop-opacity="1"></stop><stop offset="80%" stop-color="#001220" stop-opacity="1"></stop></linearGradient></defs><defs><linearGradient id="grad2_0" x1="0%" y1="0%" x2="66.7%" y2="100%"><stop offset="20%" stop-color="#001220" stop-opacity="1"></stop><stop offset="80%" stop-color="#001220" stop-opacity="1"></stop></linearGradient></defs><g transform="translate(900, 0)"><path d="M0 270.4C-32.1 253.9 -64.1 237.3 -91.5 220.8C-118.8 204.3 -141.4 187.8 -169.7 169.7C-198 151.6 -232.1 132 -249.8 103.5C-267.6 74.9 -269 37.5 -270.4 0L0 0Z" fill="#FBAE3C"></path></g><g transform="translate(0, 600)"><path d="M0 -270.4C25.1 -244.7 50.3 -219 87.3 -210.6C124.2 -202.3 173 -211.4 191.2 -191.2C209.4 -171.1 197 -121.7 205.1 -85C213.2 -48.2 241.8 -24.1 270.4 0L0 0Z" fill="#FBAE3C"></path></g></svg>